<svg width="156" height="36" viewBox="0 0 156 36" fill="none" xmlns="http://www.w3.org/2000/svg">
<path d="M72.4928 0.0222222C63.951 0.0222222 57.0277 6.88889 57.0277 15.3333C57.0277 23.7778 63.951 30.6222 72.4928 30.6222C81.0346 30.6222 87.9579 23.7778 87.9579 15.3333C87.9579 6.88889 81.0346 0.0222222 72.4928 0.0222222ZM72.4928 23.4667C67.9522 23.4667 64.2657 19.8222 64.2657 15.3333C64.2657 10.8222 67.9522 7.2 72.4928 7.2C77.0334 7.2 80.7199 10.8222 80.7199 15.3333C80.7199 19.8222 77.0334 23.4667 72.4928 23.4667ZM53.1614 21.0667C49.947 24.2444 44.732 24.2444 41.5176 21.0667C38.3032 17.9111 38.3032 12.7556 41.5176 9.57778C44.732 6.4 49.947 6.4 53.1614 9.57778L58.264 4.51111C52.2398 -1.46667 42.4392 -1.46667 36.3925 4.51111C30.3683 10.4889 30.3683 20.1556 36.3925 26.1333C42.4392 32.1111 52.2398 32.1111 58.264 26.1333L53.1614 21.0667ZM150.718 21.0667C147.503 24.2444 142.288 24.2444 139.074 21.0667C135.859 17.8889 135.859 12.7333 139.074 9.55556C142.288 6.4 147.503 6.4 150.718 9.55556L155.843 4.51111C149.796 -1.46667 139.995 -1.46667 133.949 4.51111C127.925 10.4667 127.925 20.1556 133.949 26.1333C139.995 32.1111 149.796 32.1111 155.843 26.1333L150.718 21.0667ZM128.486 30.3333H121.248V0.244444H128.486V30.3333ZM30.9527 15.2889C30.9527 6.84444 24.0294 0 15.4651 0C6.92334 0 0 6.84444 0 15.2889C0 23.7556 6.92334 30.6 15.4651 30.6C18.0052 31.3556 20.0058 33.3333 20.7925 35.8444H28.0305C27.5585 32.8222 26.1648 30.1111 24.1418 27.9778C28.2329 25.2222 30.9527 20.5778 30.9527 15.2889ZM7.23804 15.2889C7.23804 10.8 10.9245 7.15555 15.4651 7.15555C20.0282 7.15555 23.7147 10.8 23.7147 15.2889C23.7147 19.7778 20.0507 23.4222 15.5101 23.4222H15.4651V23.4444C10.9245 23.4444 7.23804 19.8 7.23804 15.2889ZM119.832 15.2889C119.832 6.84444 112.909 0 104.367 0C95.8254 0 88.902 6.84444 88.902 15.2889V30.3333H96.1401V15.2889C96.1401 10.8 99.8265 7.15555 104.367 7.15555C108.908 7.15555 112.594 10.8 112.594 15.2889V30.3333H119.832V15.2889Z" fill="#19835E"/>
</svg>
